# xmcd
#
# Track frame offsets:
# 182
# 17170
# 33170
# 49512
# 69862
# 86997
# 104005
# 118252
# 133567
# 148087
# 165445
# 187970
# 205180
# 222280
#
# Disc length: 3256 seconds
#
#
# Revision: 0
# Processed by: cddbd v1.5.1PL0 Copyright (c) Steve Scherf et al.
# Submitted via: FreeRIP 2.80 
#
DISCID=c60cb60e
DTITLE=Harmonica Jones - Vanity
DYEAR=1994
DGENRE=Country
TTITLE0=Pretty Woman
TTITLE1=Love Takes Time
TTITLE2=Simple Man
TTITLE3=Can't Talk About Love
TTITLE4=Closest Thing
TTITLE5=Thinking Man
TTITLE6=This Boy
TTITLE7=Give Me Enough Rope
TTITLE8=The River
TTITLE9=Night Closes In
TTITLE10=Vanity
TTITLE11=When I Say
TTITLE12=Foreign Dreams
TTITLE13=Beyond My Eyes - James
EXTD=
EXTT0=
EXTT1=
EXTT2=
EXTT3=
EXTT4=
EXTT5=
EXTT6=
EXTT7=
EXTT8=
EXTT9=
EXTT10=
EXTT11=
EXTT12=
EXTT13=
PLAYORDER=
